<?xml version="1.0" standalone="no"?>
<!DOCTYPE svg PUBLIC "-//W3C//DTD SVG 20010904//EN"
 "http://www.w3.org/TR/2001/REC-SVG-20010904/DTD/svg10.dtd">
<svg version="1.0" xmlns="http://www.w3.org/2000/svg"
 width="2373.000000pt" height="1229.000000pt" viewBox="0 0 2373.000000 1229.000000"
 preserveAspectRatio="xMidYMid meet">

<g transform="translate(0.000000,1229.000000) scale(0.100000,-0.100000)"
fill="#000000" stroke="none">
<path d="M11012 11932 c-298 -196 -542 -360 -542 -363 0 -3 206 -133 457 -289
l457 -283 40 22 c23 12 75 41 116 63 l76 41 4384 -2147 4385 -2146 18 22 c18
21 17 22 -30 51 -26 17 -2017 1232 -4423 2700 -2406 1468 -4380 2673 -4385
2678 -7 5 -224 -132 -553 -349z"/>
<path d="M13421 11931 c-286 -196 -519 -359 -518 -363 1 -4 202 -130 447 -279
l444 -271 71 38 c38 21 91 50 116 63 l45 25 4335 -2147 c3941 -1953 4335
-2146 4347 -2130 7 9 11 22 9 27 -2 6 -269 173 -593 372 -324 198 -2298 1410
-4386 2691 l-3797 2331 -520 -357z"/>
<path d="M1530 5779 c-502 -45 -932 -279 -1225 -668 -271 -359 -367 -845 -265
-1339 98 -474 432 -900 863 -1102 427 -200 1017 -224 1484 -59 246 87 514 265
667 445 l58 68 -24 18 c-12 10 -69 52 -124 93 l-102 75 -97 -94 c-213 -207
-447 -332 -735 -393 -131 -28 -478 -25 -617 5 -286 62 -508 183 -709 387 -190
193 -303 413 -350 685 -25 147 -15 429 20 570 113 445 443 789 901 938 153 50
270 67 455 66 318 -1 561 -73 810 -238 90 -61 219 -176 289 -259 l32 -39 116
89 c64 48 121 91 127 95 21 14 -157 208 -279 303 -351 274 -802 397 -1295 354z"/>
<path d="M4921 5608 c-86 -183 -257 -538 -351 -733 -51 -104 -141 -291 -200
-415 -59 -124 -139 -290 -178 -370 -38 -80 -178 -370 -310 -645 -132 -275
-279 -580 -326 -679 -47 -98 -86 -180 -86 -182 0 -2 80 -4 178 -4 l177 1 87
182 c49 100 142 295 209 432 67 138 139 287 160 333 l39 82 685 0 686 0 101
-207 c55 -115 136 -282 180 -373 44 -91 111 -229 149 -307 l68 -143 170 0 c94
0 171 2 171 4 0 4 -124 269 -240 511 -34 72 -120 252 -190 400 -131 278 -740
1560 -837 1765 -71 148 -126 264 -174 368 l-38 82 -41 0 -40 0 -49 -102z m199
-795 c57 -120 145 -305 197 -412 51 -106 93 -194 93 -196 0 -1 31 -67 70 -146
l69 -144 -536 -3 c-295 -1 -538 0 -541 3 -3 2 41 98 96 212 159 329 298 617
369 766 36 75 69 137 73 137 4 0 53 -98 110 -217z"/>
<path d="M7030 4145 l0 -1565 165 0 165 0 2 1177 3 1177 226 -255 c353 -396
1421 -1600 1549 -1744 63 -72 117 -132 120 -135 3 -3 48 -53 99 -112 89 -102
97 -108 133 -108 l38 0 0 1565 0 1565 -160 0 -160 0 -2 -1191 -3 -1192 -80 90
c-110 123 -490 552 -1099 1243 -99 113 -195 221 -212 240 -30 33 -276 311
-581 658 -124 140 -137 152 -169 152 l-34 0 0 -1565z"/>
<path d="M11493 5643 c-17 -38 -127 -266 -243 -508 -117 -242 -234 -485 -260
-540 -26 -55 -136 -284 -245 -510 -109 -225 -219 -455 -245 -510 -26 -55 -145
-301 -263 -547 l-215 -448 178 0 179 0 29 63 c54 112 178 367 302 622 67 138
131 271 142 298 l21 47 687 0 687 0 63 -132 c35 -73 130 -268 210 -433 80
-165 164 -337 185 -382 l39 -83 173 0 172 0 -48 102 c-27 57 -196 414 -376
793 -180 380 -390 821 -465 980 -76 160 -161 340 -190 400 -29 61 -90 189
-135 285 -46 96 -115 242 -155 325 -39 82 -81 171 -92 197 -20 46 -22 48 -62
48 l-42 0 -31 -67z m286 -1048 c58 -121 142 -299 189 -395 83 -173 132 -279
132 -286 0 -2 -243 -4 -540 -4 l-540 0 9 23 c5 12 65 137 133 277 68 140 187
385 263 543 l140 289 55 -114 c30 -62 102 -212 159 -333z"/>
<path d="M13580 4145 l0 -1567 658 5 c760 5 841 12 1096 93 327 104 593 342
761 679 107 215 154 413 162 685 16 511 -129 913 -442 1225 -197 197 -434 320
-729 380 -226 46 -390 56 -968 62 l-538 5 0 -1567z m1145 1236 c415 -47 648
-143 860 -356 95 -95 160 -183 218 -300 165 -328 180 -814 38 -1156 -96 -229
-283 -432 -499 -539 -238 -118 -471 -150 -1099 -150 l-353 0 0 1261 0 1261
368 -5 c202 -3 412 -10 467 -16z"/>
<path d="M16880 4145 l0 -1565 905 0 905 0 0 155 0 155 -745 0 -745 0 0 615 0
615 745 0 745 0 0 150 0 150 -745 0 -745 0 0 490 0 490 750 0 750 0 0 155 0
155 -910 0 -910 0 0 -1565z"/>
<path d="M23312 5674 c-68 -18 -85 -28 -139 -77 -69 -63 -96 -125 -101 -229
-4 -81 -2 -92 25 -150 37 -78 91 -133 163 -167 75 -36 200 -37 275 -3 63 29
129 92 163 157 24 45 27 61 27 150 0 85 -3 106 -23 142 -50 94 -122 153 -219
178 -69 18 -102 18 -171 -1z m169 -59 c99 -35 162 -104 185 -201 48 -209 -153
-388 -358 -318 -144 49 -222 227 -160 366 56 127 209 196 333 153z"/>
<path d="M23297 5526 c-11 -12 -14 -53 -14 -199 l0 -185 23 -5 c13 -2 26 -2
29 1 3 3 5 43 5 89 l0 83 35 0 c42 0 81 -33 90 -77 18 -84 41 -113 76 -96 11
5 -30 136 -50 164 l-19 26 29 27 c28 26 34 46 31 91 -3 37 -25 64 -64 79 -49
20 -151 21 -171 2z m166 -57 c43 -52 0 -119 -78 -119 l-45 0 0 69 c0 46 4 71
13 75 25 11 92 -5 110 -25z"/>
<path d="M13838 1430 c-131 -24 -242 -79 -302 -151 -76 -90 -94 -223 -44 -331
51 -110 173 -211 378 -313 280 -140 359 -243 256 -333 -51 -45 -95 -55 -205
-50 -104 6 -217 38 -355 102 l-73 33 -7 -121 c-8 -142 -18 -128 128 -185 251
-98 533 -109 697 -26 141 72 211 207 189 365 -23 166 -126 268 -438 434 -195
104 -252 154 -252 221 0 38 55 90 111 105 79 22 212 7 341 -38 62 -21 120 -42
129 -46 14 -6 17 8 23 115 4 67 4 125 -1 129 -14 13 -126 49 -213 70 -95 23
-289 34 -362 20z"/>
<path d="M15308 1430 c-247 -39 -425 -145 -539 -318 -78 -118 -94 -180 -93
-352 0 -131 3 -153 28 -225 39 -115 98 -209 185 -296 172 -172 390 -248 676
-236 247 10 400 72 551 222 133 133 184 252 184 437 0 207 -65 377 -198 520
-98 105 -249 191 -404 228 -95 23 -303 34 -390 20z m324 -278 c192 -68 309
-241 309 -457 0 -142 -36 -230 -130 -319 -178 -166 -498 -150 -664 33 -121
134 -158 379 -81 535 33 65 116 151 177 182 110 57 272 68 389 26z"/>
<path d="M18868 1430 c-334 -53 -566 -248 -625 -525 -18 -84 -12 -249 13 -340
62 -233 263 -439 507 -519 215 -71 522 -56 717 35 126 59 260 182 317 293 60
115 81 314 49 462 -61 280 -287 501 -588 574 -95 23 -303 34 -390 20z m281
-265 c156 -37 301 -178 339 -330 45 -177 7 -337 -106 -448 -70 -68 -143 -104
-250 -119 -208 -30 -403 64 -486 235 -65 133 -75 318 -24 430 33 70 111 155
178 191 96 52 233 68 349 41z"/>
<path d="M16530 720 l0 -700 175 0 174 0 -5 483 c-5 467 -5 481 13 462 10 -12
195 -229 411 -483 l393 -462 155 0 154 0 -2 698 -3 697 -173 3 -173 2 5 -327
c4 -181 9 -388 12 -462 3 -82 2 -132 -4 -130 -6 2 -184 210 -398 462 l-388
457 -173 0 -173 0 0 -700z"/>
<path d="M20090 720 l0 -700 170 0 170 0 0 279 0 279 29 5 c45 9 143 -9 197
-36 73 -37 128 -98 290 -323 l147 -204 328 0 328 0 50 153 50 152 247 0 246 0
52 -150 52 -150 168 -3 c133 -2 167 0 164 10 -3 7 -117 322 -253 701 l-248
687 -193 0 -193 0 -21 -57 c-12 -32 -67 -179 -122 -328 -144 -389 -285 -768
-317 -854 l-28 -75 -53 80 c-141 210 -273 373 -340 419 l-40 28 47 16 c172 58
249 180 223 350 -15 94 -53 165 -129 242 -72 71 -154 118 -256 144 -82 21
-298 35 -552 35 l-213 0 0 -700z m636 445 c106 -31 164 -98 164 -188 0 -71
-22 -104 -88 -135 -52 -24 -70 -27 -208 -30 l-151 -4 -6 77 c-4 43 -7 127 -7
186 0 94 2 108 18 113 32 10 227 -3 278 -19z m1461 -383 c45 -134 83 -245 83
-248 0 -2 -79 -4 -175 -4 -96 0 -175 3 -175 8 0 7 154 472 166 502 6 13 7 13
12 0 3 -8 43 -124 89 -258z"/>
</g>
</svg>
