<?xml version="1.0" standalone="no"?>
<!DOCTYPE svg PUBLIC "-//W3C//DTD SVG 20010904//EN"
 "http://www.w3.org/TR/2001/REC-SVG-20010904/DTD/svg10.dtd">
<svg version="1.0" xmlns="http://www.w3.org/2000/svg"
 width="2373.000000pt" height="1229.000000pt" viewBox="0 0 2373.000000 1229.000000"
 preserveAspectRatio="xMidYMid meet">

<g transform="translate(0.000000,1229.000000) scale(0.100000,-0.100000)"
fill="#000000" stroke="none">
<path d="M11012 11932 c-298 -196 -542 -360 -542 -363 0 -3 206 -133 457 -289
l457 -283 40 22 c23 12 75 41 116 63 l76 41 4384 -2147 4385 -2146 18 22 c18
21 17 22 -30 51 -26 17 -2017 1232 -4423 2700 -2406 1468 -4380 2673 -4386
2678 -6 5 -219 -129 -552 -349z"/>
<path d="M13421 11931 c-286 -196 -519 -359 -518 -363 1 -4 202 -130 447 -279
l444 -271 71 38 c38 21 91 50 116 63 l45 25 4335 -2147 c3941 -1953 4335
-2146 4347 -2130 7 9 11 22 9 27 -2 6 -269 173 -593 372 -324 198 -2298 1410
-4386 2691 l-3797 2331 -520 -357z"/>
<path d="M1534 5780 c-299 -25 -581 -121 -816 -279 -576 -389 -824 -1020 -678
-1729 98 -474 431 -900 864 -1103 426 -200 1013 -223 1483 -58 120 42 299 136
413 217 91 64 277 239 299 281 10 18 -1 29 -113 110 l-124 91 -96 -93 c-209
-206 -448 -333 -736 -394 -131 -28 -478 -25 -617 5 -286 62 -508 183 -708 386
-161 163 -269 353 -328 573 -31 116 -31 122 -31 348 0 227 0 232 32 350 39
147 126 330 211 442 334 444 931 646 1500 508 285 -69 553 -235 740 -458 l32
-39 117 87 c64 48 121 91 126 96 20 18 -171 223 -299 321 -341 259 -787 377
-1271 338z"/>
<path d="M4926 5618 c-24 -51 -359 -750 -746 -1553 -386 -803 -704 -1466 -707
-1472 -4 -10 34 -13 173 -13 l179 0 247 513 247 512 687 0 687 0 247 -510 248
-510 171 -3 c94 -1 171 0 171 3 0 2 -332 706 -739 1562 l-739 1558 -41 3 -41
3 -44 -93z m356 -1145 l266 -558 -536 -3 c-294 -1 -537 0 -540 2 -5 6 530
1116 538 1116 4 0 126 -251 272 -557z"/>
<path d="M7030 4145 l0 -1565 165 0 165 0 2 1177 3 1178 1045 -1178 c1039
-1171 1045 -1177 1082 -1177 l38 0 0 1565 0 1565 -160 0 -160 0 -2 -1192 -3
-1192 -1053 1192 c-1013 1146 -1055 1192 -1088 1192 l-34 0 0 -1565z"/>
<path d="M10875 4357 c-357 -743 -695 -1448 -752 -1565 l-102 -212 180 2 180
3 247 512 247 513 685 0 686 0 249 -515 250 -515 172 0 172 0 -29 63 c-17 34
-350 738 -742 1564 l-713 1503 -40 0 -40 0 -650 -1353z m975 90 c138 -291 250
-531 247 -533 -2 -2 -245 -3 -540 -2 l-536 3 271 563 272 563 17 -33 c9 -18
130 -271 269 -561z"/>
<path d="M13580 4145 l0 -1567 658 5 c710 4 765 8 992 63 392 96 688 342 876
729 97 201 143 402 151 665 16 509 -129 913 -437 1220 -202 202 -436 325 -734
385 -226 46 -390 56 -968 62 l-538 5 0 -1567z m1145 1236 c153 -17 312 -48
400 -76 417 -136 700 -462 786 -910 54 -274 26 -595 -70 -826 -96 -229 -283
-432 -499 -539 -238 -118 -471 -150 -1099 -150 l-353 0 0 1261 0 1261 368 -5
c202 -3 412 -10 467 -16z"/>
<path d="M16880 4145 l0 -1565 905 0 905 0 0 155 0 155 -745 0 -745 0 0 615 0
615 745 0 745 0 0 150 0 150 -745 0 -745 0 0 490 0 490 750 0 750 0 0 155 0
155 -910 0 -910 0 0 -1565z"/>
<path d="M23313 5675 c-93 -25 -166 -86 -215 -178 -20 -36 -23 -57 -23 -142 0
-89 3 -106 27 -150 35 -66 89 -119 157 -153 74 -36 200 -39 273 -5 63 29 134
96 166 158 24 44 27 61 27 150 0 85 -3 106 -23 142 -50 94 -122 153 -219 178
-69 18 -102 18 -170 0z m205 -74 c138 -70 194 -230 128 -366 -95 -194 -361
-209 -477 -27 -96 152 -28 343 148 408 52 19 148 12 201 -15z"/>
<path d="M23292 5532 c-9 -7 -12 -54 -10 -203 l3 -194 28 -3 27 -3 0 92 0 92
41 -6 c54 -7 68 -22 89 -98 17 -64 36 -87 62 -76 14 5 13 14 -4 79 -11 40 -28
82 -39 93 -18 20 -18 21 11 49 54 51 41 139 -25 171 -35 16 -160 21 -183 7z
m137 -43 c89 -31 55 -139 -44 -139 l-45 0 0 69 c0 83 16 95 89 70z"/>
<path d="M13838 1430 c-131 -24 -242 -79 -302 -151 -76 -90 -94 -223 -44 -331
51 -110 173 -211 378 -313 280 -140 359 -243 256 -333 -51 -45 -95 -55 -205
-50 -104 6 -217 38 -355 102 l-73 33 -7 -121 c-8 -142 -18 -128 128 -185 251
-98 533 -109 697 -26 141 72 211 207 189 365 -23 166 -126 268 -438 434 -148
79 -206 119 -232 162 -29 46 -25 81 13 119 77 77 247 74 467 -9 52 -19 95 -34
96 -33 1 1 5 57 9 124 l7 122 -39 16 c-21 9 -90 30 -153 46 -125 32 -303 46
-392 29z"/>
<path d="M15308 1430 c-247 -39 -425 -145 -539 -318 -77 -118 -94 -180 -94
-352 1 -132 3 -152 28 -225 40 -115 99 -209 186 -296 172 -172 390 -248 676
-236 247 10 400 72 551 222 133 133 184 252 184 437 0 307 -150 548 -429 688
-137 69 -400 106 -563 80z m264 -261 c81 -17 153 -55 219 -116 105 -98 150
-203 150 -357 0 -143 -36 -231 -130 -320 -178 -166 -498 -150 -664 33 -64 71
-100 157 -117 278 -30 229 100 425 318 477 71 18 155 19 224 5z"/>
<path d="M18868 1430 c-334 -53 -566 -247 -625 -523 -18 -86 -12 -250 13 -342
62 -233 263 -439 507 -519 155 -52 409 -59 572 -17 259 67 450 246 510 476 20
77 20 245 -1 338 -59 271 -281 489 -573 563 -108 28 -306 39 -403 24z m264
-261 c135 -28 264 -129 323 -252 90 -184 60 -399 -73 -530 -70 -68 -143 -104
-250 -119 -208 -30 -403 64 -486 235 -65 133 -75 318 -24 430 33 70 111 155
178 191 90 49 225 67 332 45z"/>
<path d="M16530 720 l0 -700 175 0 174 0 -5 483 c-5 467 -5 481 13 462 10 -12
195 -229 411 -483 l393 -462 155 0 154 0 -2 698 -3 697 -173 3 -173 2 5 -327
c4 -181 9 -388 12 -462 3 -82 2 -132 -4 -130 -6 2 -184 210 -398 462 l-388
457 -173 0 -173 0 0 -700z"/>
<path d="M20090 720 l0 -700 170 0 170 0 0 279 0 279 29 5 c45 9 143 -9 197
-36 70 -35 140 -114 298 -334 l138 -193 328 0 328 0 52 155 52 155 245 -2 245
-3 52 -150 52 -150 168 -3 c133 -2 167 0 164 10 -3 7 -117 322 -253 701 l-248
687 -193 0 -193 0 -21 -57 c-12 -32 -119 -319 -237 -638 -118 -319 -218 -589
-222 -599 -7 -17 -17 -7 -61 60 -142 211 -273 373 -341 420 l-41 28 39 11 c91
28 174 89 208 155 43 83 38 216 -12 320 -57 118 -200 227 -348 265 -84 21
-293 35 -547 35 l-218 0 0 -700z m633 446 c108 -32 167 -100 167 -191 0 -69
-22 -102 -88 -133 -52 -24 -70 -27 -208 -30 l-151 -4 -6 77 c-4 43 -7 127 -7
186 0 94 2 108 18 113 31 9 226 -3 275 -18z m1464 -384 c45 -134 83 -245 83
-248 0 -2 -79 -4 -175 -4 -96 0 -175 3 -175 8 0 7 154 472 166 502 6 13 7 13
12 0 3 -8 43 -124 89 -258z"/>
</g>
</svg>
